<!-- bathla -->

<svg xmlns="http://www.w3.org/2000/svg" width="100" height="100" viewBox="0 0 994 280" fill="none">
<rect y="3" width="100" height="100" rx="12" fill="#0A0A0A" />
<path d="M22.9692 1.4359C12.3965 4.25708 3.4097 13.5565 1.18943 24.0053C-0.396477 31.215 -0.396477 186.275 1.18943 198.501C3.51543 217.204 12.3965 236.221 25.1895 249.909C70.2292 297.973 149.63 286.166 178.177 227.235C185.26 212.607 186.635 205.919 186.635 187.007C186.635 173.319 186.212 169.557 184.203 162.661C179.657 146.883 170.458 131.837 158.511 120.552C149.947 112.507 143.71 108.432 132.925 103.416C118.864 97.0426 111.78 95.5797 93.5949 95.5797C74.9869 95.6842 66.6345 97.4605 51.6212 104.984L42.3173 109.581V57.8595V6.03338L39.2512 3.00322C35.7622 -0.44489 31.6388 -0.862842 22.9692 1.4359ZM103.216 136.957C124.679 140.823 142.124 158.795 145.19 180.32C147.516 196.097 142.229 211.771 130.705 223.16C119.498 234.236 107.551 238.729 91.0574 237.997C81.9649 237.684 79.9561 237.266 72.6609 233.818C50.0353 223.16 37.9824 199.023 43.4803 175.513C47.7093 157.332 64.2028 141.346 82.8107 137.375C91.0574 135.599 95.2865 135.494 103.216 136.957Z" fill="white"/>
<path d="M431.922 0.912034C423.147 3.31526 415.111 9.48007 410.988 17.2122L408.662 21.3917L408.345 111.043C408.133 197.559 408.133 201.007 410.142 209.47C418.706 244.787 449.896 273.208 486.371 278.955C490.178 279.478 499.799 280 507.834 280C521.896 280 522.53 279.896 524.962 277.388C530.354 272.059 527.711 257.64 519.57 248.758C513.86 242.489 506.777 239.354 495.675 238.205C475.164 236.219 456.239 220.024 450.953 200.067C449.684 195.26 449.367 187.632 449.367 165.376V136.851H479.076H508.786L511.957 133.612C515.023 130.582 515.129 130.164 514.495 124.104C513.226 112.087 507.411 103.519 497.156 98.504C491.235 95.6828 490.6 95.5783 470.301 95.2649L449.367 94.8469V50.126C449.367 -1.28222 449.79 1.01652 440.274 0.389593C437.42 0.180616 433.719 0.494081 431.922 0.912034Z" fill="white"/>
<path d="M568.309 0.912678C562.388 2.48 556.468 6.13709 552.133 10.9435C543.992 20.034 544.521 10.7346 544.521 150.017C544.521 294.107 543.252 279.478 555.833 279.478C567.252 279.478 577.19 273.313 582.9 262.76C585.12 258.79 585.226 256.909 585.86 217.83C586.389 179.274 586.494 176.766 588.715 170.915C594.635 155.137 606.582 143.644 622.759 138.315C631.323 135.493 646.653 135.702 655.005 138.942C668.961 144.27 678.583 152.943 685.032 166.109L688.838 173.945L689.367 224.413L689.895 274.985L692.961 277.597C695.816 280.001 696.768 280.21 702.16 279.687C713.79 278.642 722.882 272.791 728.274 262.76L731.129 257.536V215.218C731.023 166.526 730.812 165.064 721.191 145.733C711.992 127.552 697.719 113.446 679.323 104.46C667.27 98.6091 657.014 95.9969 643.164 95.37C624.45 94.4296 608.485 97.8777 593.472 106.028C589.772 108.013 586.494 109.685 586.283 109.685C585.966 109.685 585.754 86.175 585.754 57.5453C585.754 -2.22197 586.283 1.01717 576.662 0.390237C573.807 0.18126 570.107 0.494725 568.309 0.912678Z" fill="white"/>
<path d="M770.565 1.43437C761.367 3.8376 755.024 9.47996 750.689 18.9884C748.68 23.3769 748.574 26.5115 748.574 149.599V275.716L751.535 277.91C753.966 279.895 755.235 280.104 760.944 279.686C772.257 278.642 781.35 272.477 786.742 262.237L789.279 257.535L789.596 132.672C789.808 44.6925 789.491 6.97224 788.645 5.09146C786.636 0.0760234 780.292 -1.17783 770.565 1.43437Z" fill="white"/>
<path d="M278.617 96.7276C242.881 104.564 216.238 130.059 206.617 165.69C205.137 171.228 204.714 176.452 204.714 188.05C204.82 201.425 205.137 204.35 207.568 212.396C215.921 239.354 233.683 259.834 258.529 271.223C272.273 277.492 280.837 279.268 297.648 279.268C315.41 279.268 324.291 277.283 339.093 270.073C344.379 267.461 349.031 265.371 349.349 265.371C349.666 265.371 349.983 267.461 349.983 270.073C349.983 273.835 350.617 275.507 352.732 277.597C355.269 280.104 355.904 280.209 362.141 279.686C370.705 278.85 378.106 275.193 383.604 269.029C391.322 260.356 391.428 259.416 391.005 212.396C390.582 173.213 390.371 170.392 388.256 163.182C378.212 130.373 355.058 107.49 322.282 98.0859C311.815 95.1602 289.19 94.4288 278.617 96.7276ZM314.459 138.941C337.719 146.777 352.52 170.601 349.031 194.111C345.119 220.024 323.974 238.205 297.754 238.205C280.52 238.205 266.67 231.413 256.414 218.038C238.652 194.946 244.467 160.779 268.784 144.897C274.071 141.448 283.903 137.478 289.718 136.433C295.005 135.493 308.326 136.851 314.459 138.941Z" fill="white"/>
<path d="M881.791 96.5177C844.469 104.354 816.451 131.835 808.31 168.615C806.83 175.093 806.619 179.795 807.042 191.079C807.676 207.589 809.262 214.067 815.711 227.232C829.35 255.131 853.667 273.103 885.28 278.536C904.733 281.88 927.676 278.014 944.91 268.401C947.976 266.729 950.725 265.371 951.042 265.371C951.359 265.371 951.57 267.042 951.57 269.028C951.57 277.282 956.117 280.73 965.526 279.685C976.733 278.327 986.355 271.431 991.112 261.296C993.227 256.698 993.333 255.026 993.333 215.739C993.333 176.765 993.227 174.57 990.901 165.584C982.654 133.298 957.28 107.28 925.139 98.1895C914.883 95.2638 891.94 94.4279 881.791 96.5177ZM910.654 137.373C929.579 141.343 946.178 157.225 950.407 175.511C955.905 198.916 943.852 223.157 921.438 233.711C914.46 236.95 912.029 237.577 903.57 237.995C886.654 238.831 874.495 234.338 863.183 223.157C842.566 202.782 842.989 170.704 864.24 150.643C871.747 143.537 879.359 139.358 888.557 137.373C897.015 135.492 901.984 135.492 910.654 137.373Z" fill="white"/>
</svg>