<svg xmlns="http://www.w3.org/2000/svg"  width="200" height="100" viewBox="0 0 909 281">
<g transform="translate(-270.000000,300.000000) scale(0.100000,-0.100000)" fill="white" stroke="none">
<path d="M6475 2707 c-153 -51 -258 -170 -272 -311 l-6 -57 59 3 c50 3 59 6 62 23 11 65 28 102 65 142 74 80 157 106 252 79 90 -27 169 -112 183 -199 l7 -42 59 -3 59 -3 -6 54 c-17 171 -174 315 -351 324 -41 1 -88 -3 -111 -10z" />
<path d="M9005 2101 c-17 -10 -39 -37 -49 -60 -17 -36 -17 -47 -7 -82 15 -51 39 -75 90 -90 107 -32 200 92 141 188 -36 60 -116 81 -175 44z m121 -23 c27 -13 44 -49 44 -94 0 -26 -8 -44 -30 -66 -28 -28 -36 -30 -78 -25 -59 6 -92 41 -92 95 0 85 77 129 156 90z"/>
<path d="M4739 2077 c-146 -61 -229 -170 -249 -324 -7 -47 -10 -279 -8 -588 l3 -510 80 0 80 0 5 565 c6 628 2 594 75 659 125 110 304 66 370 -92 13 -31 15 -115 15 -587 l0 -550 80 0 80 0 0 538 c0 295 5 555 10 576 29 128 185 212 304 162 18 -7 49 -28 70 -46 74 -66 70 -31 76 -660 l5 -565 83 -3 82 -3 0 548 c0 464 -2 558 -16 608 -35 136 -128 235 -263 280 -40 13 -74 16 -140 13 -100 -5 -170 -33 -245 -99 l-46 -41 -47 43 c-77 68 -142 93 -253 96 -82 3 -103 0 -151 -20z"/>
<path d="M6419 2077 c-105 -44 -163 -100 -213 -207 l-31 -65 -3 -431 c-3 -409 -2 -434 17 -488 38 -109 116 -179 244 -218 87 -26 204 -22 289 11 115 45 209 161 224 279 l7 52 -81 0 -80 0 -11 -44 c-24 -97 -103 -150 -221 -150 -100 0 -169 36 -206 107 -15 28 -23 155 -11 174 4 6 119 88 257 183 137 94 259 183 270 197 11 14 32 51 47 82 25 50 28 67 28 156 0 93 -2 105 -33 167 -39 79 -111 149 -192 187 -81 37 -222 41 -301 8z m231 -158 c122 -55 171 -184 116 -302 -15 -29 -57 -63 -218 -174 -109 -76 -202 -138 -204 -138 -3 0 -5 108 -4 240 1 233 1 241 24 280 62 104 178 143 286 94z"/>
<path d="M8345 2086 c-129 -41 -227 -141 -261 -268 -26 -98 -26 -98 65 -98 l79 0 10 43 c15 58 48 105 100 141 35 25 55 31 110 34 61 3 72 1 122 -30 69 -42 112 -107 118 -182 3 -38 0 -56 -11 -67 -8 -8 -113 -86 -233 -174 -274 -200 -322 -246 -352 -338 -64 -195 17 -402 186 -480 37 -16 67 -21 137 -21 82 -1 96 2 150 31 33 17 69 40 79 52 32 36 46 27 46 -29 l0 -51 78 3 77 3 3 555 c2 532 1 558 -18 620 -50 164 -200 271 -374 269 -39 0 -89 -6 -111 -13z m343 -828 l-3 -193 -32 -65 c-34 -70 -82 -126 -146 -168 -65 -43 -168 -32 -219 25 -31 34 -58 107 -58 158 0 96 22 123 240 287 107 80 201 147 208 147 11 1 13 -38 10 -191z"/>
<path d="M2800 1355 l0 -706 83 3 82 3 3 323 2 322 260 0 260 0 0 -325 0 -325 80 0 80 0 0 705 0 705 -80 0 -80 0 0 -295 0 -294 -251 -3 c-138 -2 -255 -1 -260 2 -5 4 -10 136 -11 295 l-3 290 -82 3 -83 3 0 -706z"/>
<path d="M3987 2053 c-10 -9 -8 -1376 2 -1391 5 -9 29 -12 82 -10 l74 3 3 703 2 702 -78 0 c-43 0 -82 -3 -85 -7z"/>
<path d="M7140 1747 c0 -373 3 -390 90 -505 31 -41 120 -101 174 -117 l41 -12 3 -232 2 -231 80 0 80 0 0 229 0 228 60 22 c70 26 170 112 202 174 46 91 47 103 48 435 l1 317 -80 3 -81 3 0 -306 c0 -337 -2 -350 -63 -413 -49 -51 -97 -72 -167 -72 -70 0 -118 21 -167 72 -61 63 -63 76 -63 413 l0 305 -80 0 -80 0 0 -313z"/>
</g>
</svg>