<!-- Gush Logo -->
<svg xmlns="http://www.w3.org/2000/svg" width="100" height="100" viewBox="0 0 909 281" fill="none">
<rect y="3" width="100" height="100" rx="12" fill="#0A0A0A" />
<path d="M144.34 2.07278C144.34 2.91652 146.797 3.22333 155.78 3.68356C167.833 4.29719 171.979 3.83696 171.979 2.07278C171.979 1.15233 169.599 0.998926 158.16 0.998926C146.873 0.998926 144.34 1.22904 144.34 2.07278Z" fill="white"/>
<path d="M246.069 4.0659C245.762 5.98349 245.147 7.13405 244.456 7.13405C243.842 7.13405 243.382 7.59427 243.382 8.2079C243.382 8.74483 242.691 9.43516 241.846 9.66527C241.001 9.89538 240.31 10.6624 240.31 11.3528C240.31 12.5033 239.159 12.58 229.485 12.3499C220.195 12.1198 218.583 11.9664 217.968 10.7391C217.354 9.66527 216.126 9.43516 211.903 9.43516C207.834 9.43516 206.529 9.20505 206.529 8.36131C206.529 7.05735 203.151 6.36701 196.855 6.36701C193.016 6.36701 191.941 6.1369 191.941 5.21646C191.941 4.21931 190.329 4.0659 182.344 4.0659C174.359 4.0659 172.747 4.21931 172.747 5.21646C172.747 6.0602 173.592 6.36701 175.741 6.36701C180.271 6.36701 183.496 7.21075 183.496 8.36131C183.496 9.12835 184.494 9.43516 186.567 9.43516C188.717 9.43516 189.638 9.74198 189.638 10.5857C189.638 11.1993 190.713 11.8897 192.325 12.1965C193.784 12.4266 195.012 13.1169 195.012 13.6539C195.012 14.1908 196.241 14.8811 197.699 15.1112C199.312 15.4181 200.387 16.1084 200.387 16.722C200.387 17.4123 201.154 17.8726 202.306 17.8726C203.534 17.8726 204.225 18.3328 204.225 19.0231C204.225 19.7135 205.147 20.4038 206.452 20.6339C207.757 20.9407 208.832 21.7078 209.062 22.5515C209.293 23.3185 209.984 24.0089 210.675 24.0089C211.366 24.0089 211.903 24.5458 211.903 25.1594C211.903 25.7731 212.594 26.31 213.439 26.31C214.437 26.31 214.974 26.8469 214.974 27.8441C214.974 28.8412 215.512 29.3781 216.51 29.3781C217.354 29.3781 218.045 29.8384 218.045 30.452C218.045 30.9889 218.736 31.6792 219.581 31.9094C220.425 32.1395 221.116 32.8298 221.116 33.5201C221.116 34.2105 221.654 34.7474 222.268 34.7474C222.882 34.7474 223.42 35.4377 223.42 36.2815C223.42 37.2786 223.957 37.8155 224.955 37.8155C225.953 37.8155 226.491 38.3525 226.491 39.3496C226.491 40.1934 227.028 40.8837 227.642 40.8837C228.257 40.8837 228.794 41.4206 228.794 42.1109C228.794 42.8013 229.485 43.4916 230.33 43.7217C231.481 44.0285 231.865 44.7956 231.865 46.7132C231.865 48.7842 232.172 49.3211 233.401 49.3211C234.399 49.3211 234.936 49.858 234.936 50.8552C234.936 51.6989 235.474 52.3892 236.088 52.3892C236.856 52.3892 237.239 53.1563 237.239 54.7671C237.239 56.4545 237.623 57.2216 238.775 57.5284C239.927 57.8352 240.31 58.6022 240.31 60.4431C240.31 62.284 240.694 63.0511 241.846 63.3579C243.151 63.6647 243.382 64.4317 243.382 67.6533C243.382 70.6447 243.689 71.5652 244.533 71.5652C245.224 71.5652 245.685 72.2555 245.685 73.4061C245.685 78.9287 247.988 82.227 249.063 78.2384C249.677 76.014 249.677 6.44372 249.063 3.37557C248.372 0.000603622 246.683 0.384122 246.069 4.0659Z" fill="white"/>
<path d="M124.378 5.21695C124.378 6.1374 123.303 6.36751 119.234 6.36751C113.015 6.36751 110.558 6.98114 110.558 8.3618C110.558 9.12884 109.33 9.43566 105.952 9.43566C102.574 9.43566 101.345 9.74247 101.345 10.5095C101.345 11.7368 99.0418 12.5038 95.4333 12.5038C93.6674 12.5038 92.8997 12.8873 92.8997 13.6544C92.8997 14.4214 92.1319 14.8049 90.8267 14.8049C87.5253 14.8049 85.222 15.6487 85.222 16.7992C85.222 17.5662 84.2239 17.8731 82.151 17.8731C79.6173 17.8731 79.0799 18.1032 79.0799 19.4071C79.0799 20.7111 78.5425 20.9412 76.0088 20.9412C73.8591 20.9412 72.9378 21.248 72.9378 22.0918C72.9378 22.7054 71.8629 23.3957 70.2506 23.7025C68.7918 23.9327 67.5634 24.623 67.5634 25.1599C67.5634 25.6968 66.335 26.3872 64.8762 26.6173C63.2639 26.9241 62.189 27.6144 62.189 28.2281C62.189 28.8417 61.4981 29.3786 60.6535 29.3786C59.809 29.3786 59.118 29.9155 59.118 30.5292C59.118 31.1428 58.0431 31.8331 56.4308 32.14C54.8953 32.3701 53.7436 33.0604 53.7436 33.674C53.7436 34.2877 53.0526 34.7479 52.2081 34.7479C51.21 34.7479 50.6726 35.2848 50.6726 36.282C50.6726 37.2791 50.1351 37.816 49.137 37.816C48.2925 37.816 47.6015 38.353 47.6015 38.9666C47.6015 39.5802 47.0641 40.1171 46.3731 40.1171C45.6821 40.1171 44.9911 40.8075 44.7608 41.5745C44.5304 42.495 43.4556 43.3387 42.1504 43.5688C40.9219 43.8756 39.9238 44.566 39.9238 45.1796C39.9238 45.7932 39.2328 46.2534 38.3883 46.2534C37.3902 46.2534 36.8528 46.7904 36.8528 47.7875C36.8528 48.7847 36.3153 49.3216 35.3172 49.3216C34.3191 49.3216 33.7817 49.8585 33.7817 50.8557C33.7817 51.6994 33.321 52.3897 32.7068 52.3897C32.0926 52.3897 31.4016 53.3869 31.0945 54.6908C30.7874 55.9181 30.0964 56.992 29.4822 56.992C28.868 56.992 28.4073 57.6823 28.4073 58.526C28.4073 59.5232 27.8699 60.0601 26.8718 60.0601C25.8737 60.0601 25.3363 60.597 25.3363 61.5942C25.3363 62.5913 24.7988 63.1283 23.8007 63.1283C22.5723 63.1283 22.2652 63.6652 22.2652 65.8129C22.2652 67.6538 21.8813 68.4975 21.1136 68.4975C20.4226 68.4975 19.9619 69.1878 19.9619 70.1083C19.9619 71.0287 19.3477 71.8725 18.4264 72.1026C17.2747 72.4094 16.8909 73.1764 16.8909 75.094C16.8909 77.165 16.5837 77.702 15.3553 77.702C14.1269 77.702 13.8198 78.2389 13.8198 80.3866C13.8198 82.1508 13.4359 83.0712 12.7449 83.0712C12.0539 83.0712 11.4397 84.2218 11.1326 86.1394C10.8255 88.057 10.2113 89.2075 9.5203 89.2075C8.75253 89.2075 8.44543 90.2047 8.44543 92.966C8.44543 96.0341 8.2151 96.8012 6.90989 97.108C5.52791 97.4915 5.37436 98.1819 5.37436 102.937C5.37436 107.079 5.14403 108.383 4.29949 108.383C2.99429 108.383 2.3033 111.682 2.3033 117.665C2.3033 121.193 2.07297 122.19 1.15165 122.19C0.153553 122.19 0 125.105 0 143.667C0 162.229 0.153553 165.144 1.15165 165.144C2.07297 165.144 2.3033 166.141 2.3033 169.67C2.3033 175.653 2.99429 178.951 4.29949 178.951C5.14403 178.951 5.37436 180.332 5.37436 184.704C5.37436 189.919 5.52791 190.456 6.90989 190.456C8.29187 190.456 8.44543 190.993 8.44543 194.675C8.44543 197.743 8.75253 198.894 9.5203 198.894C10.1345 198.894 10.8255 200.044 11.0558 201.578C11.3629 203.189 12.0539 204.263 12.6681 204.263C13.5127 204.263 13.8198 205.184 13.8198 207.331C13.8198 209.862 14.0501 210.399 15.3553 210.399C16.5837 210.399 16.8909 210.936 16.8909 213.084C16.8909 215.002 17.198 215.769 18.1193 215.769C18.8103 215.769 19.5013 216.459 19.7316 217.303C19.9619 218.146 20.6529 218.837 21.1903 218.837C21.8813 218.837 22.2652 219.757 22.2652 221.521C22.2652 223.669 22.5723 224.206 23.8007 224.206C24.7988 224.206 25.3363 224.743 25.3363 225.74C25.3363 226.584 25.7969 227.274 26.4111 227.274C26.9486 227.274 27.6396 227.965 27.8699 228.808C28.1002 229.652 28.7912 230.342 29.4054 230.342C30.0964 230.342 30.7106 231.416 31.0177 233.027C31.3249 234.638 32.0158 235.712 32.6301 235.712C33.2443 235.712 33.7817 236.249 33.7817 236.862C33.7817 237.476 34.3191 238.013 35.0101 238.013C35.7011 238.013 36.3921 238.703 36.6224 239.547C36.8528 240.391 37.5438 241.081 38.158 241.081C38.7722 241.081 39.4632 241.771 39.6935 242.615C39.9238 243.459 40.7684 244.149 41.5361 244.149C42.3807 244.149 43.6091 244.839 44.3001 245.683C45.0679 246.527 46.066 247.217 46.5266 247.217C46.9873 247.217 47.6015 247.907 47.8318 248.751C48.0621 249.595 48.7531 250.285 49.4441 250.285C50.1351 250.285 50.6726 250.822 50.6726 251.436C50.6726 252.049 51.3635 252.586 52.2081 252.586C53.0526 252.586 53.7436 253.123 53.7436 253.737C53.7436 254.351 54.8185 255.041 56.4308 255.348C57.8896 255.578 59.118 256.268 59.118 256.882C59.118 257.419 60.3464 258.109 61.8052 258.416C63.3407 258.646 64.4923 259.336 64.4923 259.95C64.4923 260.564 65.1833 261.024 66.0279 261.024C66.8724 261.024 67.7937 261.561 68.0241 262.174C68.2544 262.788 69.6364 263.478 71.0951 263.785C72.5539 264.015 73.7055 264.706 73.7055 265.243C73.7055 266.316 76.0856 267.16 79.3102 267.16C80.6154 267.16 81.3832 267.544 81.3832 268.311C81.3832 269.154 82.2277 269.461 84.4543 269.461C86.9879 269.461 87.5253 269.691 87.5253 270.995C87.5253 272.376 88.0628 272.529 91.748 272.529C94.8191 272.529 95.9707 272.836 95.9707 273.603C95.9707 274.754 99.2721 275.598 104.109 275.598C106.566 275.598 107.487 275.904 107.487 276.748C107.487 277.592 108.332 277.899 110.405 277.899C116.24 277.899 121.307 278.819 121.307 279.893C121.307 280.737 124.532 280.967 138.582 280.967C152.709 280.967 155.856 280.813 155.856 279.893C155.856 278.666 152.555 277.899 147.334 277.899C144.494 277.899 143.572 277.592 143.572 276.748C143.572 275.981 142.804 275.598 141.499 275.598C138.198 275.598 135.895 274.754 135.895 273.603C135.895 272.913 134.973 272.529 133.284 272.529C131.365 272.529 130.597 272.146 130.29 270.995C129.983 269.845 129.215 269.461 127.142 269.461C125.223 269.461 124.378 269.154 124.378 268.311C124.378 267.697 123.841 267.16 123.15 267.16C122.459 267.16 121.768 266.47 121.537 265.626C121.307 264.782 120.462 264.092 119.695 264.092C118.773 264.092 118.236 263.555 118.236 262.558C118.236 261.561 117.699 261.024 116.7 261.024C115.856 261.024 115.165 260.564 115.165 259.95C115.165 259.336 114.167 258.646 112.938 258.339C111.633 258.109 110.558 257.265 110.328 256.345C110.098 255.578 109.407 254.888 108.792 254.888C108.101 254.888 107.41 253.89 107.103 252.586C106.796 251.282 106.105 250.285 105.491 250.285C104.877 250.285 104.416 249.595 104.416 248.751C104.416 247.907 103.956 247.217 103.341 247.217C102.804 247.217 102.113 246.527 101.883 245.683C101.652 244.839 100.961 244.149 100.27 244.149C99.5792 244.149 99.0418 243.535 99.0418 242.615C99.0418 241.771 98.5044 241.081 97.8902 241.081C97.2759 241.081 96.585 240.007 96.2778 238.396C95.9707 236.479 95.4333 235.712 94.3584 235.712C93.2068 235.712 92.8997 235.175 92.8997 233.027C92.8997 231.186 92.5158 230.342 91.748 230.342C91.1338 230.342 90.5964 229.652 90.5964 228.808C90.5964 227.811 90.0589 227.274 89.0608 227.274C87.7556 227.274 87.5253 226.737 87.5253 224.206C87.5253 222.135 87.2182 221.138 86.4504 221.138C85.2988 221.138 84.4543 218.837 84.4543 215.539C84.4543 214.235 84.0704 213.468 83.3026 213.468C82.4581 213.468 82.151 212.624 82.151 210.706C82.151 208.635 81.7671 207.868 80.6154 207.561C79.3102 207.178 79.0799 206.487 79.0799 203.036C79.0799 200.044 78.7728 198.894 78.005 198.894C77.0069 198.894 76.0088 195.749 76.0088 192.297C76.0088 191.147 75.5482 190.456 74.8572 190.456C73.9359 190.456 73.7055 189.459 73.7055 185.931C73.7055 179.948 73.0145 176.65 71.7093 176.65C70.8648 176.65 70.6345 174.809 70.6345 167.829C70.6345 160.925 70.4041 159.008 69.5596 159.008C68.0241 159.008 67.5634 153.255 67.5634 132.085C67.5634 112.065 67.8705 108.383 69.5596 108.383C70.4041 108.383 70.6345 106.389 70.6345 98.7955C70.6345 91.2018 70.8648 89.2075 71.7093 89.2075C72.861 89.2075 73.7055 85.9093 73.7055 81.0769C73.7055 78.6224 74.0126 77.702 74.8572 77.702C75.6249 77.702 76.0088 76.9349 76.0088 75.4776C76.0088 71.7191 76.9301 68.4975 78.005 68.4975C78.7728 68.4975 79.0799 67.347 79.0799 64.2788C79.0799 61.2107 79.387 60.0601 80.1548 60.0601C81.3064 60.0601 82.151 57.759 82.151 54.4607C82.151 53.2335 82.5348 52.3897 83.2258 52.3897C83.9168 52.3897 84.531 51.2392 84.8381 49.3216C85.1452 47.404 85.7595 46.2534 86.4504 46.2534C87.0647 46.2534 87.5253 45.5631 87.5253 44.7194C87.5253 43.8756 88.0628 43.1853 88.677 43.1853C89.2912 43.1853 89.9822 42.1114 90.2893 40.5007C90.5196 39.0433 91.2106 37.816 91.748 37.816C92.2855 37.816 92.9765 36.5888 93.2068 35.1314C93.5139 33.5206 94.2049 32.4468 94.8191 32.4468C95.4333 32.4468 95.9707 31.7564 95.9707 30.9127C95.9707 29.9155 96.5082 29.3786 97.5063 29.3786C98.5044 29.3786 99.0418 28.8417 99.0418 27.8445C99.0418 26.8474 99.5792 26.3105 100.577 26.3105C101.575 26.3105 102.113 25.7735 102.113 24.7764C102.113 23.9327 102.65 23.2423 103.265 23.2423C103.879 23.2423 104.416 22.7054 104.416 22.0918C104.416 21.4781 105.107 20.9412 105.952 20.9412C106.95 20.9412 107.487 20.4043 107.487 19.4071C107.487 18.41 108.025 17.8731 109.023 17.8731C109.867 17.8731 110.558 17.4128 110.558 16.7992C110.558 16.1856 111.633 15.4952 112.862 15.1884C114.167 14.8816 115.165 14.1913 115.165 13.5777C115.165 12.964 115.933 12.5038 117.084 12.5038C118.466 12.5038 119.004 12.1203 119.004 10.9697C119.004 9.74247 119.541 9.43566 121.691 9.43566C123.457 9.43566 124.378 9.05214 124.378 8.3618C124.378 7.13454 126.681 6.36751 130.367 6.36751C132.056 6.36751 132.824 5.98399 132.824 5.21695C132.824 4.29651 131.825 4.0664 128.601 4.0664C125.376 4.0664 124.378 4.29651 124.378 5.21695Z" fill="white"/>
<path d="M622.658 5.21778C622.658 6.13822 623.656 6.36833 626.881 6.36833C630.566 6.36833 631.104 6.52174 631.104 7.90241C631.104 8.89956 631.641 9.43648 632.639 9.43648C633.484 9.43648 634.175 9.97341 634.175 10.587C634.175 11.2007 634.712 11.7376 635.326 11.7376C635.941 11.7376 636.478 12.4279 636.478 13.2717C636.478 14.2688 637.015 14.8057 638.014 14.8057C639.319 14.8057 639.549 15.3427 639.549 17.8739C639.549 19.9449 639.856 20.942 640.624 20.942C641.776 20.942 642.62 24.2403 642.62 29.0726C642.62 31.5272 642.927 32.4476 643.772 32.4476C644.77 32.4476 644.923 45.4872 644.923 145.202C644.923 244.917 644.77 257.957 643.772 257.957C642.927 257.957 642.62 258.954 642.62 261.945C642.62 267.084 641.929 269.462 640.624 269.462C640.01 269.462 639.549 270.152 639.549 270.996C639.549 271.84 639.088 272.53 638.474 272.53C637.937 272.53 637.246 273.221 637.015 274.064C636.785 274.985 635.941 275.598 635.019 275.598C633.944 275.598 633.407 276.059 633.407 277.132C633.407 278.436 632.869 278.667 629.568 278.667C626.651 278.667 625.729 278.973 625.729 279.817C625.729 280.661 626.651 280.968 629.568 280.968C632.486 280.968 633.407 280.661 633.407 279.817C633.407 278.82 637.323 278.667 664.348 278.667C681.316 278.667 695.98 278.436 696.978 278.206L698.667 277.746V206.028C698.667 135 698.667 134.31 700.203 133.927C701.354 133.62 701.738 132.853 701.738 130.935C701.738 128.864 702.045 128.327 703.274 128.327C704.272 128.327 704.809 127.79 704.809 126.793C704.809 125.949 705.347 125.259 705.961 125.259C706.575 125.259 707.112 124.722 707.112 124.109C707.112 123.495 707.803 122.958 708.648 122.958C709.646 122.958 710.184 122.421 710.184 121.424C710.184 120.427 710.721 119.89 711.719 119.89C712.717 119.89 713.255 119.353 713.255 118.356C713.255 117.359 713.792 116.822 714.79 116.822C715.635 116.822 716.326 116.361 716.326 115.748C716.326 115.134 717.401 114.444 718.629 114.137C719.934 113.83 720.932 113.217 720.932 112.603C720.932 112.066 722.237 111.452 724.003 111.146C725.999 110.839 727.074 110.302 727.074 109.535C727.074 108.538 728.763 108.384 737.055 108.384C746.499 108.384 747.036 108.461 747.036 109.918C747.036 110.916 747.574 111.452 748.572 111.452C749.416 111.452 750.107 111.913 750.107 112.526C750.107 113.063 750.798 113.754 751.643 113.984C752.487 114.214 753.178 114.904 753.178 115.594C753.178 116.285 753.716 116.822 754.33 116.822C754.944 116.822 755.482 117.512 755.482 118.356C755.482 119.2 755.942 119.89 756.557 119.89C757.785 119.89 758.553 122.191 758.553 125.796C758.553 127.56 758.937 128.327 759.704 128.327C760.703 128.327 760.856 137.071 760.856 202.27C760.856 242.923 761.086 277.286 761.317 278.59C761.854 280.968 763.927 281.965 763.927 279.817C763.927 278.82 767.92 278.667 795.022 278.667C822.124 278.667 826.116 278.82 826.116 279.817C826.116 280.738 827.114 280.968 830.339 280.968C833.563 280.968 834.562 280.738 834.562 279.817C834.562 278.897 833.563 278.667 830.339 278.667C826.73 278.667 826.116 278.436 826.116 277.209C826.116 276.135 825.348 275.598 823.429 275.292C821.817 274.985 820.742 274.294 820.742 273.681C820.742 273.067 820.204 272.53 819.59 272.53C818.822 272.53 818.285 271.456 817.978 269.462C817.671 267.775 817.057 266.394 816.519 266.394C814.984 266.394 814.6 253.508 814.6 206.028C814.6 167.446 814.446 162.077 813.448 162.077C812.45 162.077 812.296 160.466 812.296 152.412C812.296 143.438 812.22 142.748 810.761 142.364C809.456 141.981 809.225 141.29 809.225 137.839C809.225 134.694 808.918 133.697 808.074 133.697C807.459 133.697 806.768 132.623 806.461 131.012C806.231 129.555 805.54 128.327 805.003 128.327C804.465 128.327 803.774 127.1 803.544 125.643C803.237 124.032 802.546 122.958 801.932 122.958C801.317 122.958 800.78 122.268 800.78 121.424C800.78 120.427 800.242 119.89 799.244 119.89C798.246 119.89 797.709 119.353 797.709 118.356C797.709 117.512 797.171 116.822 796.557 116.822C795.943 116.822 795.406 116.285 795.406 115.671C795.406 115.058 794.715 114.521 793.87 114.521C792.872 114.521 792.334 113.984 792.334 112.987C792.334 111.759 791.797 111.452 789.647 111.452C787.498 111.452 786.96 111.146 786.96 109.918C786.96 108.614 786.423 108.384 783.889 108.384C781.816 108.384 780.818 108.077 780.818 107.31C780.818 106.313 777.67 105.316 774.215 105.316C773.064 105.316 772.373 104.856 772.373 104.166C772.373 103.168 769.609 103.015 752.411 103.015C735.213 103.015 732.449 103.168 732.449 104.166C732.449 105.009 731.527 105.316 728.533 105.316C725.308 105.316 724.541 105.546 724.234 106.85C723.927 108.001 723.159 108.384 721.239 108.384C719.166 108.384 718.629 108.691 718.629 109.918C718.629 111.146 718.092 111.452 715.942 111.452C714.099 111.452 713.255 111.836 713.255 112.603C713.255 113.217 712.717 113.754 712.026 113.754C711.335 113.754 710.644 114.444 710.414 115.288C710.184 116.131 709.339 116.822 708.571 116.822C707.65 116.822 707.112 117.359 707.112 118.356C707.112 119.2 706.575 119.89 705.961 119.89C705.347 119.89 704.809 120.58 704.809 121.424C704.809 122.421 704.272 122.958 703.274 122.958C702.045 122.958 701.738 123.495 701.738 125.643C701.738 127.79 701.431 128.327 700.203 128.327C698.667 128.327 698.667 127.79 698.667 80.9244C698.667 30.2999 698.974 20.942 700.663 20.942C701.431 20.942 701.738 19.7915 701.738 16.7233C701.738 13.0416 701.892 12.5046 703.274 12.5046C704.272 12.5046 704.809 11.9677 704.809 10.9706C704.809 9.7433 705.347 9.43648 707.496 9.43648C709.646 9.43648 710.184 9.12967 710.184 7.90241C710.184 6.52174 710.721 6.36833 714.406 6.36833C717.631 6.36833 718.629 6.13822 718.629 5.21778C718.629 4.22063 712.794 4.06722 670.644 4.06722C628.493 4.06722 622.658 4.22063 622.658 5.21778Z" fill="white"/>
<path d="M840.704 19.7137C840.704 23.1653 839.705 26.3102 838.707 26.3102C837.863 26.3102 837.632 27.8443 837.632 33.1368C837.632 39.2731 837.479 39.9634 836.097 40.347C834.945 40.6538 834.561 41.4208 834.561 43.4918C834.561 45.3327 834.178 46.2532 833.487 46.2532C832.872 46.2532 832.181 47.4037 831.951 48.9378C831.644 50.5486 830.953 51.6224 830.339 51.6224C829.724 51.6224 829.187 52.236 829.187 53.0798C829.187 53.8468 828.496 54.6906 827.652 54.9207C826.807 55.1508 826.116 55.8411 826.116 56.5315C826.116 57.2218 825.655 57.7587 825.041 57.7587C824.427 57.7587 823.736 58.9093 823.506 60.4433C823.045 62.8212 822.661 63.128 820.742 63.128C818.976 63.128 818.438 63.5115 818.438 64.662C818.438 65.6592 817.901 66.1961 816.903 66.1961C816.058 66.1961 815.367 66.733 815.367 67.3467C815.367 68.037 814.676 68.4972 813.755 68.4972C812.834 68.4972 811.989 69.1109 811.759 70.0313C811.452 71.1819 810.684 71.5654 808.764 71.5654C806.692 71.5654 806.154 71.8722 806.154 73.0995C806.154 74.4801 805.617 74.6335 801.931 74.6335C798.86 74.6335 797.709 74.9403 797.709 75.7074C797.709 77.2415 794.177 77.7017 783.044 77.7017C774.752 77.7017 773.14 77.8551 773.14 78.8522C773.14 79.7727 774.292 80.0028 778.745 80.0028C787.037 80.0028 792.334 80.7698 792.334 81.9971C792.334 82.8408 793.639 83.0709 797.632 83.0709C802.238 83.0709 802.929 83.2243 803.313 84.605C803.62 85.7556 804.388 86.1391 806.461 86.1391C808.381 86.1391 809.225 86.4459 809.225 87.2896C809.225 87.9033 809.916 88.4402 810.761 88.4402C811.759 88.4402 812.296 88.9771 812.296 89.9743C812.296 91.2015 812.834 91.5084 814.983 91.5084C817.133 91.5084 817.671 91.8152 817.671 93.0424C817.671 94.0396 818.208 94.5765 819.206 94.5765C820.051 94.5765 820.742 95.0367 820.742 95.6504C820.742 96.1873 821.433 96.8776 822.277 97.1077C823.122 97.3378 823.813 98.0282 823.813 98.7185C823.813 99.4088 824.35 99.9458 824.964 99.9458C825.579 99.9458 826.116 100.636 826.116 101.48C826.116 102.477 826.653 103.014 827.652 103.014C828.88 103.014 829.187 103.551 829.187 105.699C829.187 107.846 829.494 108.383 830.723 108.383C831.721 108.383 832.258 108.92 832.258 109.917C832.258 110.761 832.796 111.451 833.41 111.451C834.101 111.451 834.561 112.142 834.561 113.292C834.561 116.744 835.56 119.889 836.558 119.889C837.402 119.889 837.632 121.269 837.632 125.642C837.632 130.09 837.863 131.394 838.707 131.394C839.475 131.394 839.936 132.928 840.32 136.764C840.704 140.599 841.164 142.133 841.932 142.133C842.777 142.133 843.007 140.599 843.007 134.999C843.007 125.258 843.775 119.889 845.003 119.889C845.771 119.889 846.078 118.892 846.078 116.821C846.078 114.289 846.308 113.752 847.613 113.752C848.842 113.752 849.149 113.216 849.149 111.068C849.149 109.304 849.533 108.383 850.224 108.383C850.838 108.383 851.529 107.233 851.759 105.699C852.066 104.088 852.757 103.014 853.372 103.014C853.986 103.014 854.523 102.324 854.523 101.48C854.523 100.483 855.061 99.9458 856.059 99.9458C857.057 99.9458 857.594 99.4088 857.594 98.4117C857.594 97.4145 858.132 96.8776 859.13 96.8776C859.974 96.8776 860.665 96.3407 860.665 95.7271C860.665 95.1134 861.203 94.5765 861.817 94.5765C862.431 94.5765 862.969 93.8862 862.969 93.0424C862.969 91.8152 863.506 91.5084 865.579 91.5084C867.499 91.5084 868.266 91.1248 868.573 89.9743C868.804 89.0538 869.648 88.4402 870.57 88.4402C871.491 88.4402 872.182 87.98 872.182 87.2896C872.182 86.5226 872.95 86.1391 874.332 86.1391C877.556 86.1391 879.86 85.2954 879.86 84.1448C879.86 83.3778 881.088 83.0709 884.466 83.0709C887.844 83.0709 889.073 82.7641 889.073 81.9971C889.073 80.7698 894.37 80.0028 902.739 80.0028C907.115 80.0028 908.267 79.7727 908.267 78.8522C908.267 77.9318 906.808 77.7017 899.668 77.7017C888.382 77.7017 882.931 77.0113 882.931 75.7074C882.931 74.9403 881.933 74.6335 879.86 74.6335C877.71 74.6335 876.789 74.3267 876.789 73.483C876.789 72.8693 875.714 72.179 874.101 71.8722C872.643 71.6421 871.414 70.9518 871.414 70.4148C871.414 69.8779 870.186 69.1876 868.727 68.9575C867.115 68.6506 866.04 67.9603 866.04 67.3467C866.04 66.733 865.349 66.1961 864.504 66.1961C863.506 66.1961 862.969 65.6592 862.969 64.662C862.969 63.6649 862.431 63.128 861.433 63.128C860.589 63.128 859.898 62.591 859.898 61.9774C859.898 61.3638 859.36 60.8269 858.746 60.8269C858.132 60.8269 857.594 60.1365 857.594 59.2928C857.594 58.2956 857.057 57.7587 856.059 57.7587C855.061 57.7587 854.523 57.2218 854.523 56.2246C854.523 55.2275 853.986 54.6906 852.988 54.6906C851.759 54.6906 851.452 54.1536 851.452 52.0059C851.452 50.165 851.068 49.3213 850.301 49.3213C849.686 49.3213 849.149 48.631 849.149 47.7872C849.149 46.7901 848.612 46.2532 847.613 46.2532C846.231 46.2532 846.078 45.7162 846.078 42.0344C846.078 38.9663 845.771 37.8157 845.003 37.8157C843.544 37.8157 843.007 34.3641 843.007 25.4664C843.007 19.2534 842.777 17.8728 841.855 17.8728C841.164 17.8728 840.704 18.5631 840.704 19.7137Z" fill="white"/>
<path d="M271.789 101.252C271.789 101.942 273.401 102.249 277.163 102.249C282 102.249 282.538 102.402 282.538 103.783C282.538 104.857 283.075 105.317 284.15 105.317C285.071 105.317 285.916 105.931 286.146 106.851C286.377 107.695 287.068 108.385 287.605 108.385C288.219 108.385 288.68 109.076 288.68 109.919C288.68 110.763 289.217 111.454 289.832 111.454C290.599 111.454 291.137 112.527 291.444 114.522C291.751 116.363 292.365 117.59 292.979 117.59C293.901 117.59 294.054 126.641 294.054 173.584C294.054 225.589 294.131 229.577 295.359 230.268C296.358 230.805 296.741 232.262 296.972 236.404C297.202 240.392 297.586 241.85 298.354 241.85C298.968 241.85 299.429 242.617 299.429 243.691C299.429 247.142 300.427 250.287 301.425 250.287C302.116 250.287 302.5 251.208 302.5 252.972C302.5 255.12 302.807 255.657 304.035 255.657C305.033 255.657 305.571 256.193 305.571 257.191C305.571 258.034 306.031 258.725 306.646 258.725C307.26 258.725 307.951 259.722 308.258 260.949C308.488 262.253 309.333 263.327 310.254 263.557C311.022 263.787 311.713 264.477 311.713 265.091C311.713 265.781 312.711 266.472 314.016 266.779C315.321 267.085 316.319 267.776 316.319 268.389C316.319 269.003 317.01 269.463 317.855 269.463C318.853 269.463 319.391 270 319.391 270.997C319.391 272.301 319.928 272.531 322.462 272.531C324.995 272.531 325.533 272.761 325.533 274.065C325.533 275.369 326.07 275.599 328.604 275.599C330.83 275.599 331.675 275.906 331.675 276.75C331.675 277.517 332.443 277.901 334.208 277.901C339.66 277.901 344.727 278.898 344.727 279.895C344.727 280.739 347.26 280.969 357.779 280.969C368.374 280.969 370.831 280.739 370.831 279.895C370.831 279.281 369.679 278.591 368.144 278.361C366.685 278.054 365.456 277.364 365.456 276.827C365.456 276.213 364.151 275.599 362.385 275.293C360.389 274.986 359.314 274.449 359.314 273.682C359.314 273.068 358.623 272.531 357.779 272.531C356.781 272.531 356.243 271.994 356.243 270.997C356.243 270.154 355.783 269.463 355.168 269.463C354.554 269.463 353.863 268.313 353.633 266.779C353.326 265.168 352.635 264.094 352.021 264.094C351.176 264.094 350.869 263.02 350.869 259.875C350.869 256.807 350.562 255.657 349.794 255.657C349.257 255.657 348.566 254.583 348.259 253.279C348.028 251.975 347.798 221.753 347.798 186.24C347.798 150.726 348.028 120.505 348.259 119.201C348.566 117.897 349.257 116.823 349.794 116.823C350.639 116.823 350.869 115.442 350.869 111.07C350.869 106.468 351.099 105.317 352.021 105.317C352.788 105.317 353.172 104.55 353.172 102.786V100.331H312.481C280.465 100.331 271.789 100.562 271.789 101.252Z" fill="white"/>
<path d="M390.332 100.638C389.257 101.712 390.562 102.249 394.324 102.249C397.933 102.249 398.701 102.479 399.008 103.783C399.238 104.78 400.313 105.471 402.002 105.777C403.845 106.084 404.612 106.698 404.612 107.695C404.612 108.539 405.073 109.152 405.687 109.152C406.839 109.152 407.683 111.454 407.683 114.675C407.683 115.979 408.067 116.823 408.682 116.823C410.217 116.823 410.755 134.465 410.755 184.706C410.755 234.947 410.217 252.588 408.682 252.588C408.144 252.588 407.683 253.279 407.683 254.122C407.683 254.966 408.221 255.657 408.835 255.657C409.756 255.657 409.987 256.807 409.987 261.409C409.987 266.012 409.756 267.162 408.835 267.162C407.991 267.162 407.683 268.083 407.683 270.537C407.683 272.378 407.453 274.986 407.223 276.29L406.762 278.668H441.004C470.947 278.668 475.247 278.821 475.247 279.818C475.247 280.739 476.398 280.969 481.005 280.969C485.612 280.969 486.763 280.739 486.763 279.818C486.763 278.898 485.765 278.668 482.541 278.668C478.855 278.668 478.318 278.514 478.318 277.134C478.318 275.906 477.78 275.599 475.554 275.599C473.481 275.599 472.713 275.216 472.406 274.065C472.176 273.222 471.562 272.531 471.024 272.531C470.487 272.531 469.796 271.304 469.565 269.847C469.258 268.236 468.567 267.162 467.953 267.162C467.032 267.162 466.801 266.088 466.801 262.56C466.801 259.185 466.494 257.958 465.803 257.958C464.191 257.958 463.73 243.231 463.73 194.37C463.73 142.519 464.268 122.959 465.803 122.959C466.571 122.959 466.801 121.042 466.801 114.522C466.801 106.621 466.878 106.084 468.337 106.084C469.949 106.084 470.487 103.63 469.258 101.712C468.798 101.022 458.817 100.715 429.642 100.562C408.221 100.408 390.485 100.485 390.332 100.638Z" fill="white"/>
<path d="M550.488 100.485C549.874 100.715 549.106 101.329 548.799 101.712C548.569 102.172 545.344 102.709 541.736 102.863C536.822 103.093 535.133 103.476 535.133 104.243C535.133 104.934 534.212 105.317 532.369 105.317C530.296 105.317 529.528 105.701 529.221 106.851C528.914 108.079 528.146 108.385 525.843 108.385C523.77 108.385 522.388 108.846 521.544 109.919C520.776 110.763 519.624 111.454 518.856 111.454C518.089 111.454 517.474 111.99 517.474 112.604C517.474 113.218 516.4 113.908 514.787 114.215C513.252 114.445 512.1 115.135 512.1 115.749C512.1 116.363 511.563 116.823 510.948 116.823C510.334 116.823 509.797 117.513 509.797 118.357C509.797 119.354 509.259 119.891 508.338 119.891C507.263 119.891 506.726 120.658 506.419 122.576C506.111 124.186 505.42 125.26 504.806 125.26C504.192 125.26 503.655 125.951 503.655 126.794C503.655 127.791 503.117 128.328 502.119 128.328C500.814 128.328 500.584 128.865 500.584 131.396C500.584 133.621 500.276 134.465 499.432 134.465C498.434 134.465 498.28 136.229 498.28 145.587C498.28 154.945 498.434 156.709 499.432 156.709C500.2 156.709 500.584 157.476 500.584 158.78C500.584 162.078 501.428 164.379 502.58 164.379C503.194 164.379 503.655 165.146 503.655 166.297C503.655 167.447 504.115 168.214 504.806 168.214C505.42 168.214 506.111 169.288 506.419 170.899C506.649 172.433 507.34 173.584 507.954 173.584C508.568 173.584 509.029 174.12 509.029 174.811C509.029 175.501 509.72 176.191 510.565 176.422C511.409 176.652 512.1 177.265 512.1 177.802C512.1 178.339 512.791 178.953 513.636 179.183C514.48 179.413 515.171 180.103 515.171 180.794C515.171 181.484 515.709 182.021 516.323 182.021C516.937 182.021 517.474 182.558 517.474 183.248C517.474 183.939 518.165 184.629 519.01 184.859C519.854 185.089 520.545 185.779 520.545 186.316C520.545 186.93 521.236 187.39 522.081 187.39C523.079 187.39 523.617 187.927 523.617 188.924C523.617 190.152 524.154 190.458 526.304 190.458C528.453 190.458 528.991 190.765 528.991 191.992C528.991 192.99 529.528 193.527 530.526 193.527C531.371 193.527 532.062 193.987 532.062 194.6C532.062 195.214 533.214 195.904 534.749 196.134C536.361 196.441 537.436 197.132 537.436 197.745C537.436 198.359 538.127 198.896 538.972 198.896C539.97 198.896 540.507 199.433 540.507 200.43C540.507 201.427 541.045 201.964 542.043 201.964C542.887 201.964 543.578 202.501 543.578 203.114C543.578 203.728 544.653 204.418 546.266 204.725C547.801 204.955 548.953 205.646 548.953 206.259C548.953 206.873 549.413 207.333 550.028 207.333C550.565 207.333 551.256 208.024 551.486 208.867C551.717 209.788 552.561 210.401 553.483 210.401C554.404 210.401 555.095 210.862 555.095 211.475C555.095 212.089 556.17 212.779 557.398 213.086C558.703 213.393 559.702 214.083 559.702 214.697C559.702 215.31 560.393 215.771 561.237 215.771C562.235 215.771 562.773 216.308 562.773 217.305C562.773 218.302 563.31 218.839 564.308 218.839C565.153 218.839 565.844 219.376 565.844 219.989C565.844 220.603 566.381 221.14 567.072 221.14C567.763 221.14 568.454 221.83 568.684 222.674C568.915 223.518 569.759 224.208 570.527 224.208C571.448 224.208 571.986 224.745 571.986 225.742C571.986 226.586 572.523 227.276 573.137 227.276C573.752 227.276 574.289 227.966 574.289 228.81C574.289 229.807 574.827 230.344 575.825 230.344C577.13 230.344 577.36 230.881 577.36 234.179C577.36 237.094 577.667 238.015 578.512 238.015C579.433 238.015 579.663 239.472 579.663 246.836C579.663 254.199 579.433 255.657 578.512 255.657C577.744 255.657 577.36 256.424 577.36 258.264C577.36 260.182 576.976 260.949 575.825 261.256C574.98 261.486 574.289 262.176 574.289 262.867C574.289 263.557 573.752 264.094 573.137 264.094C572.523 264.094 571.986 264.784 571.986 265.628C571.986 266.625 571.448 267.162 570.45 267.162C569.606 267.162 568.915 267.622 568.915 268.236C568.915 268.773 568.224 269.463 567.379 269.693C566.535 269.923 565.844 270.614 565.844 271.304C565.844 272.225 565.076 272.531 563.156 272.531C561.391 272.531 560.469 272.915 560.469 273.605C560.469 274.756 557.168 275.599 552.331 275.599C549.874 275.599 548.953 275.906 548.953 276.75C548.953 277.67 547.955 277.901 544.73 277.901C541.505 277.901 540.507 277.67 540.507 276.75C540.507 275.83 539.433 275.599 535.363 275.599C529.144 275.599 526.688 274.986 526.688 273.605C526.688 272.992 525.92 272.531 524.768 272.531C523.617 272.531 522.849 272.071 522.849 271.457C522.849 270.844 521.851 270.154 520.545 269.847C519.317 269.54 518.242 268.85 518.242 268.236C518.242 267.622 517.551 267.162 516.707 267.162C515.709 267.162 515.171 266.625 515.171 265.628C515.171 264.631 514.634 264.094 513.636 264.094C512.407 264.094 512.1 263.557 512.1 261.486C512.1 259.568 511.716 258.801 510.565 258.495C509.72 258.264 509.029 257.574 509.029 256.884C509.029 256.193 508.492 255.657 507.877 255.657C507.11 255.657 506.726 254.889 506.726 253.125C506.726 249.52 505.958 247.219 504.73 247.219C503.885 247.219 503.655 245.608 503.655 239.932C503.655 233.182 503.578 232.645 502.119 232.645C500.737 232.645 500.584 232.108 500.584 227.276C500.584 222.981 500.353 221.907 499.432 221.907C498.434 221.907 498.28 225.512 498.28 249.904C498.28 274.296 498.434 277.901 499.432 277.901C500.046 277.901 500.584 277.21 500.584 276.367C500.584 275.369 501.121 274.832 502.119 274.832C502.964 274.832 503.655 274.296 503.655 273.682C503.655 273.068 504.346 272.531 505.19 272.531C506.188 272.531 506.726 271.994 506.726 270.997C506.726 269.77 507.263 269.463 509.413 269.463C511.563 269.463 512.1 269.77 512.1 270.997C512.1 272.378 512.637 272.531 516.323 272.531C520.008 272.531 520.545 272.685 520.545 274.065C520.545 275.369 521.083 275.599 523.617 275.599C525.766 275.599 526.688 275.906 526.688 276.673C526.688 277.44 528.223 277.901 532.062 278.284C535.901 278.668 537.436 279.128 537.436 279.895C537.436 280.739 539.97 280.969 551.64 280.969C563.08 280.969 565.844 280.739 565.844 279.895C565.844 278.821 571.832 277.901 578.972 277.901C581.813 277.901 582.735 277.594 582.735 276.75C582.735 275.983 583.502 275.599 585.268 275.599C588.877 275.599 591.18 274.832 591.18 273.605C591.18 272.838 592.178 272.531 594.251 272.531C596.785 272.531 597.322 272.301 597.322 270.997C597.322 269.77 597.86 269.463 600.009 269.463C601.775 269.463 602.696 269.08 602.696 268.389C602.696 267.852 603.387 267.162 604.232 266.932C605.077 266.702 605.767 266.012 605.767 265.398C605.767 264.784 606.458 264.094 607.303 263.864C608.148 263.634 608.839 262.943 608.839 262.253C608.839 261.563 609.376 261.026 609.99 261.026C610.604 261.026 611.142 260.489 611.142 259.875C611.142 259.262 611.833 258.725 612.677 258.725C613.675 258.725 614.213 258.188 614.213 257.267C614.213 256.5 614.904 255.657 615.748 255.426C616.593 255.196 617.284 254.506 617.284 253.816C617.284 253.125 617.821 252.588 618.436 252.588C619.203 252.588 619.587 251.821 619.587 249.98C619.587 248.063 619.971 247.296 621.123 246.989C622.428 246.682 622.658 245.915 622.658 242.31C622.658 239.012 622.889 238.015 623.81 238.015C624.731 238.015 624.962 236.557 624.962 229.577C624.962 222.597 624.731 221.14 623.81 221.14C622.889 221.14 622.658 220.066 622.658 215.771C622.658 210.938 622.505 210.401 621.123 210.401C619.894 210.401 619.587 209.864 619.587 207.717C619.587 205.876 619.203 205.032 618.436 205.032C617.745 205.032 617.284 204.342 617.284 203.421C617.284 202.501 616.67 201.657 615.748 201.427C614.674 201.12 614.213 200.353 614.213 198.896C614.213 197.438 613.752 196.671 612.677 196.365C611.833 196.134 611.142 195.444 611.142 194.83C611.142 194.217 610.451 193.527 609.606 193.296C608.762 193.066 608.071 192.376 608.071 191.686C608.071 190.995 607.533 190.458 606.919 190.458C606.305 190.458 605.767 189.921 605.767 189.231C605.767 188.541 605.077 187.85 604.232 187.62C603.387 187.39 602.696 186.7 602.696 186.163C602.696 185.549 602.005 185.089 601.161 185.089C600.163 185.089 599.625 184.552 599.625 183.555C599.625 182.328 599.088 182.021 596.938 182.021C594.788 182.021 594.251 181.714 594.251 180.487C594.251 179.49 593.714 178.953 592.715 178.953C591.871 178.953 591.18 178.416 591.18 177.802C591.18 177.189 590.643 176.652 590.028 176.652C589.414 176.652 588.877 175.961 588.877 175.118C588.877 174.12 588.339 173.584 587.341 173.584C586.343 173.584 585.806 173.047 585.806 172.049C585.806 171.052 585.268 170.515 584.27 170.515C583.426 170.515 582.735 169.978 582.735 169.365C582.735 168.751 582.197 168.214 581.506 168.214C580.815 168.214 580.124 167.524 579.894 166.68C579.663 165.836 578.819 165.146 578.051 165.146C577.207 165.146 575.978 164.456 575.287 163.612C574.519 162.768 573.521 162.078 572.984 162.078C572.446 162.078 571.986 161.541 571.986 160.851C571.986 160.16 571.295 159.47 570.45 159.24C569.606 159.01 568.915 158.32 568.915 157.783C568.915 157.169 568.224 156.709 567.379 156.709C566.381 156.709 565.844 156.172 565.844 155.175C565.844 154.178 565.306 153.641 564.308 153.641C563.464 153.641 562.773 153.104 562.773 152.49C562.773 151.876 562.235 151.339 561.544 151.339C560.853 151.339 560.162 150.649 559.932 149.882C559.702 148.962 558.627 148.118 557.321 147.888C556.093 147.581 555.095 146.891 555.095 146.277C555.095 145.663 554.404 145.203 553.559 145.203C552.561 145.203 552.024 144.666 552.024 143.669C552.024 142.672 551.486 142.135 550.488 142.135C549.49 142.135 548.953 141.598 548.953 140.601C548.953 139.757 548.492 139.067 547.878 139.067C547.264 139.067 546.573 137.993 546.266 136.766C545.959 135.462 545.268 134.465 544.653 134.465C544.039 134.465 543.578 133.774 543.578 132.931C543.578 131.933 543.041 131.396 542.043 131.396C540.738 131.396 540.507 130.86 540.507 128.328C540.507 125.797 540.277 125.26 538.972 125.26C537.59 125.26 537.436 124.723 537.436 120.044C537.436 113.908 538.051 111.454 539.433 111.454C540.047 111.454 540.507 110.763 540.507 109.919C540.507 108.922 541.045 108.385 542.043 108.385C542.887 108.385 543.578 107.925 543.578 107.312C543.578 106.544 545.114 106.084 549.337 105.701C553.483 105.317 555.095 104.857 555.095 104.09C555.095 103.246 556.477 103.016 560.853 103.016C565.229 103.016 566.611 103.246 566.611 104.09C566.611 105.164 571.679 106.084 577.59 106.084C579.587 106.084 580.431 106.391 580.431 107.235C580.431 108.079 581.353 108.385 584.27 108.385C587.571 108.385 588.109 108.615 588.109 109.919C588.109 111.07 588.646 111.454 590.028 111.454C591.18 111.454 591.948 111.914 591.948 112.527C591.948 113.141 593.023 113.831 594.251 114.138C595.556 114.445 596.554 115.135 596.554 115.749C596.554 116.363 597.245 116.823 598.09 116.823C599.088 116.823 599.625 117.36 599.625 118.357C599.625 119.354 600.163 119.891 601.161 119.891C602.389 119.891 602.696 120.428 602.696 122.576C602.696 124.723 603.004 125.26 604.232 125.26C605.23 125.26 605.767 125.797 605.767 126.794C605.767 127.638 606.305 128.328 606.919 128.328C607.687 128.328 608.071 129.095 608.071 130.783C608.071 134.388 608.839 136.766 609.99 136.766C610.681 136.766 611.065 138.99 611.295 144.743C611.526 152.49 612.063 154.561 613.292 153.334C613.599 153.027 613.906 142.749 614.059 130.553C614.213 111.76 614.443 108.385 615.365 108.385C616.132 108.385 616.516 107.542 616.516 105.701C616.516 103.86 616.132 103.016 615.365 103.016C614.597 103.016 614.213 103.783 614.213 105.624C614.213 108.002 613.983 108.232 611.526 108.692C609.913 108.999 608.839 109.689 608.839 110.303C608.839 111.223 607.764 111.454 604.232 111.454C600.163 111.454 599.625 111.3 599.625 109.919C599.625 108.615 599.088 108.385 595.863 108.385C592.792 108.385 592.024 108.155 591.717 106.851C591.41 105.547 590.643 105.317 587.418 105.317C584.654 105.317 583.502 105.01 583.502 104.243C583.502 103.476 581.89 103.093 577.667 102.863C573.828 102.633 571.602 102.096 571.141 101.405C570.681 100.562 568.147 100.255 561.084 100.178C555.863 100.101 551.103 100.255 550.488 100.485Z" fill="white"/>
<path d="M169.676 155.174C169.676 155.558 170.367 155.941 171.212 155.941C172.056 155.941 172.747 155.558 172.747 155.174C172.747 154.714 172.056 154.407 171.212 154.407C170.367 154.407 169.676 154.714 169.676 155.174Z" fill="white"/>
<path d="M179.504 156.479C176.97 157.092 178.045 158.856 181.193 159.393C183.112 159.7 184.264 160.314 184.264 161.004C184.264 161.618 184.801 162.078 185.415 162.078C186.03 162.078 186.567 162.538 186.567 163.152C186.567 163.689 187.258 164.379 188.103 164.609C189.024 164.839 189.638 165.683 189.638 166.604C189.638 167.524 190.099 168.214 190.713 168.214C191.481 168.214 191.865 170.055 192.249 175.118C192.709 180.334 193.093 182.021 193.938 182.021C194.859 182.021 195.013 189.001 195.013 229.961V277.901H198.084C200.31 277.901 201.155 277.594 201.155 276.75C201.155 275.906 202.076 275.6 204.84 275.6C209.523 275.6 211.903 274.909 211.903 273.605C211.903 272.838 213.055 272.531 216.126 272.531C219.197 272.531 220.349 272.225 220.349 271.458C220.349 269.923 223.881 269.463 235.474 269.463C245.148 269.463 245.839 269.54 246.223 270.997C246.53 272.148 247.297 272.531 249.217 272.531C251.75 272.531 251.827 272.608 251.827 275.676C251.827 278.207 252.058 278.744 253.209 278.514C254.438 278.284 254.514 275.139 254.745 227.43C254.898 183.018 255.052 176.652 256.05 176.652C256.971 176.652 257.202 175.655 257.202 172.433C257.202 168.751 257.355 168.214 258.737 168.214C260.042 168.214 260.273 167.677 260.273 165.146C260.273 162.615 260.503 162.078 261.808 162.078C262.653 162.078 263.344 161.541 263.344 160.927C263.344 160.16 264.188 159.777 266.031 159.777C268.411 159.777 268.718 159.547 268.718 157.859V155.942L224.802 156.018C200.617 156.095 180.195 156.249 179.504 156.479Z" fill="white"/>
<path d="M611.909 160.926C611.909 161.539 612.293 162.076 612.677 162.076C613.138 162.076 613.445 161.539 613.445 160.926C613.445 160.312 613.138 159.775 612.677 159.775C612.293 159.775 611.909 160.312 611.909 160.926Z" fill="white"/>
<path d="M402.31 262.559C402.31 262.943 402.847 263.326 403.461 263.326C404.075 263.326 404.613 262.943 404.613 262.559C404.613 262.099 404.075 261.792 403.461 261.792C402.847 261.792 402.31 262.099 402.31 262.559Z" fill="white"/>
<path d="M399.238 265.244C399.238 265.858 399.776 266.395 400.39 266.395C401.004 266.395 401.542 265.858 401.542 265.244C401.542 264.63 401.004 264.093 400.39 264.093C399.776 264.093 399.238 264.63 399.238 265.244Z" fill="white"/>
<path d="M396.167 268.312C396.167 268.926 396.705 269.463 397.319 269.463C397.933 269.463 398.471 268.926 398.471 268.312C398.471 267.699 397.933 267.162 397.319 267.162C396.705 267.162 396.167 267.699 396.167 268.312Z" fill="white"/>
<path d="M390.793 271.379C390.793 271.992 391.33 272.529 391.945 272.529C392.559 272.529 393.096 271.992 393.096 271.379C393.096 270.765 392.559 270.228 391.945 270.228C391.33 270.228 390.793 270.765 390.793 271.379Z" fill="white"/>
<path d="M387.722 273.68C387.722 274.293 388.259 274.83 388.873 274.83C389.488 274.83 390.025 274.293 390.025 273.68C390.025 273.066 389.488 272.529 388.873 272.529C388.259 272.529 387.722 273.066 387.722 273.68Z" fill="white"/>
<path d="M376.973 276.75C376.973 277.517 377.818 277.9 379.66 277.9C381.503 277.9 382.348 277.517 382.348 276.75C382.348 275.983 381.503 275.599 379.66 275.599C377.818 275.599 376.973 275.983 376.973 276.75Z" fill="white"/>
<path d="M181.193 279.818C181.193 280.739 182.191 280.969 185.416 280.969C188.64 280.969 189.638 280.739 189.638 279.818C189.638 278.898 188.64 278.668 185.416 278.668C182.191 278.668 181.193 278.898 181.193 279.818Z" fill="white"/>
</svg>