<!-- Doori Logo -->
<svg xmlns="http://www.w3.org/2000/svg" width="170" height="100" viewBox="0 0 886 280" fill="none">
<rect y="3" width="100" height="100" rx="12" fill="white" />
  <path d="M164.591 271.776C163.827 265.432 163.479 259.652 163.099 253.339C161.66 253.472 159.886 253.091 159.001 253.808C153.163 258.536 148.13 264.642 141.663 268.122C131.893 273.381 121.55 278.889 110.161 278.837C96.1655 278.772 82.0784 277.745 68.2279 275.759C61.324 274.769 54.0219 271.872 48.3816 267.791C38.5819 260.7 28.5453 253.11 21.1609 243.722C12.4922 232.7 6.35937 219.726 3.08319 205.601C-6.17349 165.693 5.67007 131.99 35.1565 105.325C48.5167 93.2426 65.8768 86.4876 84.7019 83.529C104.026 80.4919 121.227 86.1687 138.692 91.8356C143.276 93.3231 147.181 97.1243 151.172 100.16C154.955 103.037 158.441 106.303 163.012 110.214C163.223 106.794 163.494 104.432 163.497 102.069C163.528 77.6896 163.806 53.3044 163.343 28.9335C163.2 21.3906 165.653 19.1263 172.864 19.7589C179.404 20.3326 186.034 19.8802 193.19 19.8802C193.19 104.049 193.19 187.959 193.19 272.339C183.987 272.339 174.497 272.339 164.591 271.776ZM44.4199 140.04C40.3367 148.609 34.3922 156.805 32.5875 165.83C29.5483 181.029 30.5564 195.928 37.6717 211.087C45.5204 227.808 57.5372 239.122 73.0778 246.624C87.3446 253.512 103.096 253.967 118.295 248.477C131.425 243.733 142.178 236.182 150.915 224.461C156.408 217.091 161.268 209.649 162.9 201.236C164.937 190.73 165.902 179.446 164.285 168.967C162.779 159.202 158.15 149.564 153.219 140.814C150.25 135.548 144.337 131.745 139.274 127.909C133.666 123.66 127.965 118.921 121.513 116.524C108.095 111.539 93.8066 111.232 80.1137 115.06C72.3847 117.222 65.0734 121.676 58.2982 126.186C53.2409 129.552 49.3432 134.66 44.4199 140.04Z" fill="black"/>
  <path d="M392.285 256.628C375.399 268.137 358.681 277.435 337.86 279.545C317.072 281.651 298.509 276.137 279.822 269.381C275.671 267.88 271.64 264.831 268.674 261.497C259.712 251.426 250.022 241.656 242.99 230.299C233.573 215.089 229.48 197.509 230.614 179.59C231.409 167.03 232.652 153.748 237.46 142.38C243.701 127.626 254.269 114.94 266.966 104.52C283.545 90.9145 302.959 84.204 323.935 82.7835C337.656 81.8543 351.026 85.2099 364.038 90.2604C377.305 95.4095 387.44 103.945 397.438 113.864C407.006 123.355 413.064 134.695 418.719 146.146C422.427 153.655 422.978 162.978 423.822 171.599C426.216 196.035 420.104 218.642 406.976 239.203C403.023 245.395 397.486 250.577 392.285 256.628ZM297.283 120.579C289.846 127.279 281.419 133.171 275.172 140.839C260.655 158.661 260.206 179.778 263.841 201.287C266.277 215.7 275.662 225.561 285.981 235.029C295.825 244.062 306.673 249.986 320.248 250.12C334.874 250.264 348.843 250.162 361.931 240.539C370.273 234.406 377.735 227.826 383.161 219.593C391.288 207.262 394.391 193.146 393.569 178.135C392.753 163.237 387.632 149.374 378.116 138.98C371.476 131.727 364.275 124.096 353.669 119.561C342.406 114.746 331.836 112.195 320.361 113.763C312.897 114.783 305.757 118.183 297.283 120.579Z" fill="black"/>
  <path d="M613.425 107.975C618.268 113.848 622.689 119.346 627.172 124.794C634.134 133.254 637.992 143.133 640.959 153.553C646.664 173.581 646.19 193.704 640.17 213.269C634.531 231.597 624.71 247.814 608.135 258.728C598.311 265.198 588.843 273.301 577.97 276.782C566.834 280.347 554.19 279.505 542.184 279.907C537.045 280.08 531.779 278.833 526.69 277.699C486.758 268.799 463.911 242.182 453.47 204.349C448.183 185.192 451.367 165.353 456.435 146.405C458.3 139.429 463.986 133.435 468.108 127.109C484.758 101.56 507.831 86.9621 538.587 83.699C562.716 81.1391 583.855 87.3604 603.371 100.919C606.583 103.15 609.81 105.359 613.425 107.975ZM503.228 133.494C499.206 138.146 494.14 142.246 491.335 147.543C475.157 178.097 480.33 209.516 502.561 233.23C518.924 250.684 540.582 252.83 562.422 249.277C582.857 245.952 595.607 231.876 606.203 214.391C615.828 198.508 614.048 182.149 611.713 166.006C609.353 149.696 599.297 137.452 585.933 126.957C573.193 116.953 559.512 112.45 544.175 113.115C528.306 113.803 514.882 121.037 503.228 133.494Z" fill="black"/>
  <path d="M699.917 216.566C699.917 235.568 699.917 253.809 699.917 272.508C689.714 272.508 679.972 272.508 669.826 272.508C669.826 211.338 669.826 150.296 669.826 88.8716C680.319 88.8716 690.586 88.8716 701.158 88.8716C701.366 92.3659 701.557 95.5718 701.805 99.7359C712.626 96.0819 716.869 83.0889 729.929 83.1035C741.329 83.1163 751.464 84.6978 762.079 91.7368C757.228 99.4514 752.569 107.038 747.647 114.449C747.065 115.325 744.878 115.831 743.703 115.514C722.587 109.812 716.083 122.199 709.194 137.16C701.672 153.493 701.36 171.077 701.317 188.684C701.295 197.726 700.412 206.765 699.917 216.566Z" fill="black"/>
  <path d="M779.198 248.569C779.198 195.067 779.198 142.327 779.198 89.0371C789.206 89.0371 798.943 89.0371 809.188 89.0371C809.188 149.875 809.188 210.872 809.188 272.419C799.678 272.419 789.941 272.419 779.198 272.419C779.198 264.84 779.198 257.085 779.198 248.569Z" fill="black"/>
  <path d="M802.522 20.1257C813.426 24.0924 819.311 36.7506 815.825 47.5621C812.677 57.3267 802.776 65.6479 794.335 65.6227C781.401 65.5841 770.465 50.0885 772.679 37.2566C775.406 21.4607 783.381 18.7686 802.522 20.1257Z" fill="black"/>
  <path d="M861.545 18.0323C861.545 11.776 861.545 6.23316 861.545 0.382576C864.086 0.382576 866.03 0.382576 867.686 0.382576C869.844 4.1157 871.987 7.82208 874.366 11.9368C878.988 7.53736 875.961 -1.55002 885.457 0.404336C885.457 8.26222 885.457 16.207 885.457 25.2305C878.269 22.0369 883.166 15.9651 880.594 11.7035C879.477 14.6376 878.675 17.4584 877.341 20.0004C876.457 21.6842 874.812 22.9686 873.508 24.4317C872.296 22.8675 870.867 21.4202 869.937 19.7028C869.161 18.2701 868.969 16.5209 868.022 13.1374C867.726 17.8732 867.544 20.7788 867.365 23.6476C861.652 26.1199 861.293 22.7786 861.545 18.0323Z" fill="black"/>
  <path d="M840.92 3.97457C841.483 2.35874 842.49 0.289897 843.632 0.212533C848.89 -0.143682 854.185 0.0555299 859.467 0.0555299C859.782 0.840586 860.097 1.62564 860.411 2.41069C858.235 3.46223 856.059 4.51377 853.979 5.51861C853.618 11.3301 853.282 17.637 852.654 23.9146C852.626 24.2014 849.97 24.2255 847.859 24.4414C847.859 17.8266 847.859 11.5918 847.859 5.03225C845.311 4.7972 843.369 4.618 840.92 3.97457Z" fill="black"/>
</svg>
