<!-- skin -->

<svg xmlns="http://www.w3.org/2000/svg" version="1.0" width="250" height="150" viewBox="0 0 886 280" fill="none">
<rect y="3" width="100" height="100" rx="12" fill="#0A0A0A" />
<g transform="translate(0.000000,84.000000) scale(0.100000,-0.100000)" fill="#000000" stroke="none">
<path d="M201 739 c-54 -17 -109 -56 -138 -101 -23 -33 -28 -52 -28 -102 0 -117 57 -175 228 -232 45 -15 92 -38 105 -51 22 -22 23 -26 9 -46 -11 -17 -26 -23 -63 -25 -65 -5 -115 11 -150 47 l-29 29 -68 -62 -69 -61 43 -43 c63 -61 131 -85 249 -86 118 0 181 24 240 92 44 49 55 87 48 166 -8 95 -58 141 -214 196 -132 46 -156 67 -118 104 34 35 143 9 194 -46 l20 -22 60 59 c33 33 60 65 60 71 0 18 -61 68 -116 95 -39 18 -68 24 -139 26 -49 1 -105 -2 -124 -8z" fill="white" />
<path d="M680 380 l0 -360 95 0 95 0 0 135 0 135 28 0 c25 0 36 -14 111 -135 l83 -135 109 0 c60 0 109 2 109 5 0 3 -49 82 -110 174 -60 93 -112 175 -115 182 -3 8 42 88 100 179 58 91 105 168 105 172 0 5 -45 8 -99 8 l-100 0 -86 -140 c-72 -117 -91 -140 -111 -140 -23 0 -23 0 -26 138 l-3 137 -92 3 -93 3 0 -361z" fill="white" />
<path d="M1420 380 l0 -360 70 0 70 0 -2 358 -3 357 -67 3 -68 3 0 -361z" fill="white" />
<path d="M1730 378 l0 -358 70 0 70 0 0 242 0 242 80 -114 c45 -63 120 -172 168 -242 l87 -128 78 0 77 0 -2 356 -3 356 -67 1 -68 2 -2 -244 -3 -244 -168 243 -167 244 -75 0 -75 1 0 -357z" fill="white" />
<path d="M2550 375 l0 -355 134 0 c209 0 299 26 386 111 74 72 95 125 95 244 0 89 -3 106 -28 157 -45 91 -139 162 -249 188 -24 5 -109 10 -190 10 l-148 0 0 -355z m346 248 c73 -25 148 -104 163 -172 15 -70 14 -109 -4 -162 -22 -64 -67 -113 -131 -145 -48 -24 -73 -28 -165 -32 l-109 -5 0 267 0 266 98 0 c66 0 115 -6 148 -17z" fill="white" />
<path d="M4053 373 l1 -358 6 335 5 335 4 -325 c2 -179 3 -328 2 -332 0 -5 93 -8 207 -8 160 0 209 3 209 13 0 9 -39 12 -166 11 l-166 -1 158 7 c86 4 164 10 171 13 10 4 16 -3 19 -21 4 -24 4 -24 6 6 l1 32 -192 -2 -193 -2 140 -6 140 -6 -127 -2 c-71 -1 -128 -5 -128 -9 0 -5 -16 -9 -35 -10 -30 -3 -35 0 -35 18 0 15 5 20 18 17 16 -5 17 14 14 296 -1 165 -6 304 -10 308 -4 4 -7 -123 -7 -282 0 -160 -3 -290 -7 -290 -5 0 -8 130 -8 290 0 187 -4 290 -10 290 -17 0 -11 28 8 33 13 4 12 5 -5 6 l-22 1 2 -357z" fill="white" />
<path d="M4774 720 c-18 -7 -18 -7 4 -14 25 -8 21 -26 -6 -26 -15 0 -15 2 -2 10 18 12 2 12 -25 0 -17 -7 -17 -9 -2 -9 9 -1 17 -6 17 -11 0 -6 -6 -10 -14 -8 -8 2 -22 -6 -30 -17 -11 -13 -14 -14 -11 -4 3 9 -1 22 -10 29 -13 11 -21 7 -50 -25 -29 -30 -33 -40 -24 -51 9 -11 8 -19 -6 -34 -9 -10 -14 -24 -10 -29 3 -6 2 -11 -4 -11 -21 0 -20 20 1 40 19 18 20 22 8 30 -19 12 -41 -15 -33 -38 4 -8 2 -13 -3 -9 -6 3 -15 -2 -21 -12 -9 -15 -8 -17 11 -16 31 3 40 -5 20 -19 -14 -10 -15 -16 -5 -32 11 -17 11 -17 5 5 -4 15 -2 21 4 17 9 -5 28 29 25 44 -2 9 121 125 132 125 6 1 30 7 55 14 65 19 158 9 225 -24 30 -14 61 -24 68 -22 6 3 1 6 -12 6 -20 1 -22 3 -10 17 8 9 15 12 17 6 2 -6 10 -8 18 -5 11 4 12 9 4 19 -7 7 -19 10 -27 7 -11 -4 -14 -2 -9 5 5 8 2 10 -8 6 -9 -3 -18 0 -21 8 -4 9 -19 14 -40 14 -45 -2 -53 -12 -15 -19 16 -4 30 -11 30 -16 0 -6 -17 -3 -37 6 -23 9 -65 15 -105 15 -38 -1 -68 3 -68 7 0 12 30 22 42 15 6 -4 33 -8 62 -9 45 -3 47 -2 16 5 l-35 8 37 -1 c20 -1 40 1 43 5 9 8 -176 6 -201 -2z" fill="white" />
<path d="M5338 699 c-15 -25 -18 -52 -16 -147 l2 -117 6 125 6 125 2 -127 c1 -85 -2 -128 -9 -128 -5 0 -7 -4 -4 -10 19 -31 25 3 25 138 l0 147 207 -1 c115 -1 198 0 185 3 -12 2 -20 9 -17 14 4 5 -69 9 -182 9 l-188 0 -17 -31z" fill="white" />
<path d="M5321 265 c-1 -88 3 -145 10 -152 7 -7 6 -21 -4 -46 -9 -19 -13 -38 -9 -41 3 -3 105 -5 226 -4 122 1 202 3 179 5 -24 2 -43 8 -43 13 0 5 -74 11 -166 12 l-166 3 0 175 c1 95 -3 168 -7 161 -7 -11 -10 -11 -14 0 -3 8 -6 -49 -6 -126z" fill="white" />
<path d="M4578 216 c-3 -31 2 -44 29 -76 23 -27 39 -37 50 -33 11 4 14 2 9 -5 -4 -6 3 -16 16 -23 13 -6 20 -8 16 -4 -9 10 10 35 25 35 7 0 7 -4 -1 -12 -18 -18 -14 -30 8 -23 21 7 29 -10 8 -18 -19 -6 63 -27 124 -31 29 -3 45 -2 36 1 -10 2 -18 9 -18 14 0 5 -11 7 -25 3 -16 -4 -25 -2 -25 5 0 7 -13 10 -34 8 -26 -3 -33 -1 -29 9 6 17 8 17 53 4 19 -5 51 -7 70 -3 32 7 30 8 -30 14 -36 3 -74 10 -84 14 -14 6 -17 5 -12 -3 9 -14 -3 -15 -24 -2 -13 8 -13 10 -1 10 11 0 9 4 -5 14 -15 11 -22 12 -33 3 -12 -10 -13 -9 -7 1 6 9 -5 28 -32 55 -21 23 -44 51 -50 62 -8 14 -12 16 -12 5 0 -12 -2 -13 -9 -1 -6 9 -10 2 -13 -23z" fill="white" />
</g>
</svg>