<svg xmlns="http://www.w3.org/2000/svg" width="100" height="100" viewBox="0 0 1001 241" fill="none">
  <rect y="3" width="100" height="100" rx="12" fill="#0A0A0A" />
<path d="M93.1649 2.09671C55.0236 6.78622 20.3212 28.0453 5.94005 55.8697C0.625268 65.874 0 74.3151 0 121.836V175.921L9.06638 190.615C20.3212 207.81 42.5182 224.692 64.09 232.195C87.2249 240.011 138.497 241.574 161.319 235.009C184.141 228.756 209.465 211.874 221.97 194.992C226.972 188.114 231.036 182.174 230.411 181.549C230.099 181.236 222.595 177.484 213.529 172.795L197.272 164.666L191.957 174.045C183.516 187.801 162.57 201.557 140.685 207.185C96.2913 218.439 52.8351 200.307 35.6403 163.416C29.3876 150.285 28.1371 142.469 28.4497 119.334C28.4497 75.253 38.454 55.8697 68.7795 40.5507C84.0985 32.7348 89.1007 31.7969 117.238 31.7969C152.878 31.7969 167.572 37.1117 183.516 56.495L192.583 67.4372L208.839 62.4351C217.906 59.6214 225.096 56.1824 225.096 55.2445C225.096 50.2423 201.962 26.7948 188.518 18.3537C164.445 3.03461 131.619 -2.28017 93.1649 2.09671Z" fill="white"/>
<path d="M332.955 3.03731C296.377 12.4163 266.676 37.1144 250.419 70.8789C243.229 85.8853 242.291 92.138 242.291 120.9C242.291 150.913 242.916 155.29 251.045 170.296C268.552 203.436 296.377 225.633 332.642 235.324C344.21 238.451 371.096 239.701 430.809 239.701C507.717 239.701 513.032 239.389 511.469 234.074C510.531 231.26 502.09 197.183 492.398 158.416C482.394 117.774 471.139 79.9452 465.824 68.6904C441.751 19.2943 382.976 -9.78068 332.955 3.03731ZM400.796 40.5534C417.991 50.5577 433.623 67.7525 441.126 84.6348C444.253 91.8253 452.381 120.588 459.572 149.037C466.45 177.487 473.015 203.123 473.953 206.562C475.829 211.877 472.702 212.189 408.925 211.251L342.334 210.001L321.387 199.684C279.182 179.05 260.424 138.72 273.242 95.2643C280.432 70.2536 296.064 51.4956 319.512 39.6155C337.644 30.5491 341.083 29.9238 362.968 30.8617C381.413 32.1123 389.854 33.9881 400.796 40.5534Z" fill="white"/>
<path d="M826.917 3.03729C790.339 12.4163 760.013 37.1144 744.694 70.2536C737.191 85.8853 736.253 91.8253 736.253 120.9C736.253 150.601 737.191 155.603 745.007 171.547C754.698 191.243 780.022 216.566 799.092 225.633C825.041 237.825 840.047 239.701 921.645 239.701H1000.43V227.508C1000.43 208.438 970.103 90.2622 959.786 68.6904C935.713 19.6069 876.938 -9.46807 826.917 3.03729ZM889.444 38.3649C908.202 47.1187 926.334 65.5641 934.775 84.9474C939.465 94.639 954.784 153.102 967.289 206.249C968.54 211.877 965.726 212.189 902.574 210.939L836.296 210.001L815.349 199.684C778.459 181.551 760.638 151.538 763.452 113.397C766.266 79.9452 783.148 54.9345 813.474 39.9281C838.797 27.1101 864.745 26.4848 889.444 38.3649Z" fill="white"/>
<path d="M472.076 3.03715C472.076 3.66242 498.65 56.8102 531.164 121.213L590.252 238.138L607.134 239.076L624.016 240.014L656.53 173.423C674.35 136.844 700.612 83.0714 714.993 54.3091L741.254 1.78662L721.871 2.72452L702.8 3.66242L655.28 94.9515C629.331 145.286 607.447 186.553 606.509 186.553C605.571 186.553 600.256 177.8 594.941 166.857C589.314 156.228 568.055 114.96 547.421 75.5682L510.218 3.66242L491.147 2.72452C480.517 2.09925 472.076 2.41188 472.076 3.03715Z" fill="white"/>
</svg>
